<svg width="16" height="21" viewBox="0 0 16 21" fill="none" xmlns="http://www.w3.org/2000/svg">
<path d="M1.09872 15.8381L1.09861 15.8383C0.869253 16.3266 0.75 16.8697 0.75 17.4787V18.4815C0.75 19.0262 0.895098 19.4516 1.15932 19.7972C1.41992 20.1381 1.66501 20.2385 1.91667 20.2385H13.4167C13.6684 20.2385 13.914 20.138 14.1753 19.7968C14.4386 19.4514 14.5833 19.026 14.5833 18.4815V17.4787C14.5833 16.8697 14.4641 16.3266 14.2347 15.8383L14.2346 15.8381C14.0037 15.346 13.7154 15.0065 13.3843 14.7812C12.4471 14.1688 11.5041 13.7152 10.555 13.4141L1.09872 15.8381ZM1.09872 15.8381C1.32962 15.346 1.61798 15.0065 1.94909 14.7811M1.09872 15.8381L1.94909 14.7811M1.94909 14.7811C2.88628 14.1688 3.82928 13.7152 4.77831 13.4141C5.72862 13.1135 6.69057 12.9639 7.66667 12.9639C8.64258 12.9639 9.60435 13.1134 10.5545 13.414L1.94909 14.7811ZM5.5552 2.86074L4.95938 2.40522L5.5552 2.86074C6.19161 2.0283 6.88814 1.68234 7.66667 1.68234C8.4452 1.68234 9.14172 2.0283 9.77814 2.86074C10.4173 3.69677 10.75 4.71212 10.75 5.94639C10.75 7.18066 10.4173 8.19601 9.77814 9.03204C9.14172 9.86448 8.4452 10.2104 7.66667 10.2104C6.88814 10.2104 6.19161 9.86448 5.5552 9.03204C4.91603 8.19601 4.58333 7.18066 4.58333 5.94639C4.58333 4.71212 4.91603 3.69677 5.5552 2.86074Z" stroke="white" stroke-width="1.5"/>
</svg>
